<svg width="64" height="64" viewBox="0 0 64 64" fill="none" xmlns="http://www.w3.org/2000/svg">
<path d="M55.0575 7.13086L35.0703 21.9758L38.7664 13.2175L55.0575 7.13086Z" fill="#E2761B" stroke="#E2761B" stroke-linecap="round" stroke-linejoin="round"/>
<path d="M8.92188 7.13086L28.7487 22.1164L25.2333 13.2175L8.92188 7.13086Z" fill="#E4761B" stroke="#E4761B" stroke-linecap="round" stroke-linejoin="round"/>
<path d="M47.8742 41.542L42.5508 49.6978L53.9408 52.8316L57.2152 41.7228L47.8742 41.542Z" fill="#E4761B" stroke="#E4761B" stroke-linecap="round" stroke-linejoin="round"/>
<path d="M6.8125 41.7228L10.0667 52.8316L21.4566 49.6978L16.1333 41.542L6.8125 41.7228Z" fill="#E4761B" stroke="#E4761B" stroke-linecap="round" stroke-linejoin="round"/>
<path d="M20.8145 27.761L17.6406 32.562L28.9501 33.0642L28.5483 20.9111L20.8145 27.761Z" fill="#E4761B" stroke="#E4761B" stroke-linecap="round" stroke-linejoin="round"/>
<path d="M43.1734 27.7612L35.3393 20.7705L35.0781 33.0644L46.3673 32.5622L43.1734 27.7612Z" fill="#E4761B" stroke="#E4761B" stroke-linecap="round" stroke-linejoin="round"/>
<path d="M21.457 49.6973L28.2467 46.3828L22.3811 41.8027L21.457 49.6973Z" fill="#E4761B" stroke="#E4761B" stroke-linecap="round" stroke-linejoin="round"/>
<path d="M35.7383 46.3828L42.5478 49.6973L41.6037 41.8027L35.7383 46.3828Z" fill="#E4761B" stroke="#E4761B" stroke-linecap="round" stroke-linejoin="round"/>
<path d="M42.5442 49.6973L35.7344 46.3828L36.2768 50.8222L36.2165 52.6904L42.5442 49.6973Z" fill="#D7C1B3" stroke="#D7C1B3" stroke-linecap="round" stroke-linejoin="round"/>
<path d="M21.4531 49.6973L27.7808 52.6904L27.7406 50.8222L28.2428 46.3828L21.4531 49.6973Z" fill="#D7C1B3" stroke="#D7C1B3" stroke-linecap="round" stroke-linejoin="round"/>
<path d="M27.8796 38.8703L22.2148 37.203L26.2123 35.375L27.8796 38.8703Z" fill="#233447" stroke="#233447" stroke-linecap="round" stroke-linejoin="round"/>
<path d="M36.0977 38.8703L37.765 35.375L41.7825 37.203L36.0977 38.8703Z" fill="#233447" stroke="#233447" stroke-linecap="round" stroke-linejoin="round"/>
<path d="M21.4522 49.6977L22.4164 41.542L16.1289 41.7228L21.4522 49.6977Z" fill="#CD6116" stroke="#CD6116" stroke-linecap="round" stroke-linejoin="round"/>
<path d="M41.582 41.542L42.5463 49.6977L47.8698 41.7228L41.582 41.542Z" fill="#CD6116" stroke="#CD6116" stroke-linecap="round" stroke-linejoin="round"/>
<path d="M46.3595 32.5625L35.0703 33.0647L36.1149 38.8701L37.7821 35.3748L41.7996 37.2028L46.3595 32.5625Z" fill="#CD6116" stroke="#CD6116" stroke-linecap="round" stroke-linejoin="round"/>
<path d="M22.2168 37.2028L26.2343 35.3748L27.8815 38.8701L28.9462 33.0647L17.6367 32.5625L22.2168 37.2028Z" fill="#CD6116" stroke="#CD6116" stroke-linecap="round" stroke-linejoin="round"/>
<path d="M17.6367 32.5625L22.3775 41.8029L22.2168 37.2028L17.6367 32.5625Z" fill="#E4751F" stroke="#E4751F" stroke-linecap="round" stroke-linejoin="round"/>
<path d="M41.8024 37.2028L41.6016 41.8029L46.3624 32.5625L41.8024 37.2028Z" fill="#E4751F" stroke="#E4751F" stroke-linecap="round" stroke-linejoin="round"/>
<path d="M28.9475 33.0645L27.8828 38.8699L29.2086 45.7198L29.5099 36.7004L28.9475 33.0645Z" fill="#E4751F" stroke="#E4751F" stroke-linecap="round" stroke-linejoin="round"/>
<path d="M35.0697 33.0645L34.5273 36.6803L34.7684 45.7198L36.1143 38.8699L35.0697 33.0645Z" fill="#E4751F" stroke="#E4751F" stroke-linecap="round" stroke-linejoin="round"/>
<path d="M36.1154 38.8694L34.7695 45.7194L35.7337 46.3823L41.5994 41.8023L41.8003 37.2021L36.1154 38.8694Z" fill="#F6851B" stroke="#F6851B" stroke-linecap="round" stroke-linejoin="round"/>
<path d="M22.2148 37.2021L22.3756 41.8023L28.2414 46.3823L29.2057 45.7194L27.8798 38.8694L22.2148 37.2021Z" fill="#F6851B" stroke="#F6851B" stroke-linecap="round" stroke-linejoin="round"/>
<path d="M36.2176 52.6904L36.2778 50.8222L35.7756 50.3803H28.2026L27.7406 50.8222L27.7807 52.6904L21.4531 49.6973L23.6628 51.5052L28.1423 54.6188H35.8359L40.3355 51.5052L42.5452 49.6973L36.2176 52.6904Z" fill="#C0AD9E" stroke="#C0AD9E" stroke-linecap="round" stroke-linejoin="round"/>
<path d="M35.733 46.3836L34.7688 45.7207H29.2047L28.2405 46.3836L27.7383 50.823L28.2003 50.3811H35.7732L36.2754 50.823L35.733 46.3836Z" fill="#161616" stroke="#161616" stroke-linecap="round" stroke-linejoin="round"/>
<path d="M55.9026 22.94L57.6101 14.7442L55.0589 7.13086L35.7344 21.4736L43.1669 27.7611L53.6729 30.8346L56.003 28.1227L54.9987 27.3995L56.6057 25.9331L55.3602 24.9689L56.9673 23.7435L55.9026 22.94Z" fill="#763D16" stroke="#763D16" stroke-linecap="round" stroke-linejoin="round"/>
<path d="M6.38672 14.7442L8.09419 22.94L7.00944 23.7435L8.61647 24.9689L7.39111 25.9331L8.99814 27.3995L7.99375 28.1227L10.3039 30.8346L20.8098 27.7611L28.2423 21.4736L8.91779 7.13086L6.38672 14.7442Z" fill="#763D16" stroke="#763D16" stroke-linecap="round" stroke-linejoin="round"/>
<path d="M53.6744 30.8342L43.1684 27.7607L46.3624 32.5617L41.6016 41.8022L47.869 41.7218H57.2098L53.6744 30.8342Z" fill="#F6851B" stroke="#F6851B" stroke-linecap="round" stroke-linejoin="round"/>
<path d="M20.8138 27.7607L10.3078 30.8342L6.8125 41.7218H16.1333L22.3806 41.8022L17.6399 32.5617L20.8138 27.7607Z" fill="#F6851B" stroke="#F6851B" stroke-linecap="round" stroke-linejoin="round"/>
<path d="M35.0734 33.0645L35.7363 21.4738L38.7897 13.2178H25.2305L28.2436 21.4738L28.9467 33.0645L29.1877 36.7204L29.2078 45.7197H34.7721L34.8123 36.7204L35.0734 33.0645Z" fill="#F6851B" stroke="#F6851B" stroke-linecap="round" stroke-linejoin="round"/>
</svg>
